<svg width="248" height="56" viewBox="0 0 248 56" fill="none" xmlns="http://www.w3.org/2000/svg">
<path d="M247.25 33H237.25C237.25 33 238.125 41.25 229 46.5L233.375 55.375C240.75 52.5 247.25 43.25 247.25 33Z" fill="#046099"/>
<path d="M21.184 31.232C22.272 30.08 22.976 28.544 23.232 26.944C24 22.08 21.056 17.6 15.936 17.6C12.8 17.6 10.24 19.328 9.088 22.272C8.32 24.192 8.32 26.752 9.088 28.736C11.2 34.048 17.856 34.752 21.184 31.232ZM31.872 39.808H23.232V38.272C20.992 39.744 18.432 40.64 15.552 40.704C13.12 40.704 10.944 40.32 8.96 39.488C7.04 38.656 5.44 37.568 4.096 36.224C1.344 33.408 0 29.504 0 25.472C0 19.136 3.584 13.824 9.408 11.456C13.376 9.856 18.432 9.856 22.336 11.456C28.16 13.824 31.872 19.136 31.872 25.472V39.808ZM43.951 23.936C43.183 28.8 46.127 33.344 51.247 33.344C54.383 33.344 56.943 31.552 58.095 28.672C58.863 26.752 58.863 24.128 58.095 22.208C55.983 16.832 49.327 16.192 45.999 19.712C44.911 20.8 44.207 22.336 43.951 23.936ZM67.247 25.472C67.247 31.744 63.599 37.056 57.775 39.488C53.807 41.088 48.751 41.088 44.847 39.488C39.023 37.056 35.375 31.808 35.375 25.472V19.52V11.136V2.304H43.951V11.136V12.608C46.191 11.136 48.751 10.24 51.631 10.24C54.063 10.24 56.239 10.624 58.223 11.456C60.143 12.224 61.743 13.312 63.087 14.72C65.839 17.536 67.247 21.44 67.247 25.472ZM91.934 31.232C93.022 30.08 93.726 28.544 93.982 26.944C94.75 22.08 91.806 17.6 86.686 17.6C83.55 17.6 80.99 19.328 79.838 22.272C79.07 24.192 79.07 26.752 79.838 28.736C81.95 34.048 88.606 34.752 91.934 31.232ZM102.622 39.808H93.982V38.272C91.742 39.744 89.182 40.64 86.302 40.704C83.87 40.704 81.694 40.32 79.71 39.488C77.79 38.656 76.19 37.568 74.846 36.224C72.094 33.408 70.75 29.504 70.75 25.472C70.75 19.136 74.334 13.824 80.158 11.456C84.126 9.856 89.182 9.856 93.086 11.456C98.91 13.824 102.622 19.136 102.622 25.472V39.808ZM106.125 30.784L114.445 30.848C114.573 31.68 115.021 32.384 115.789 32.96C116.621 33.472 117.645 33.728 118.925 33.728C120.525 33.728 121.677 33.536 122.381 33.088C123.149 32.704 123.469 32.064 123.469 31.296C123.469 30.848 123.341 30.464 123.021 30.208C122.637 29.888 122.189 29.632 121.549 29.44C120.909 29.184 120.077 28.992 119.181 28.8C118.221 28.672 117.133 28.416 115.917 28.16C115.341 28.032 114.765 27.904 114.061 27.712C113.421 27.584 112.781 27.392 112.141 27.072C111.437 26.816 110.861 26.496 110.221 26.112C109.645 25.728 109.069 25.216 108.621 24.64C108.173 24.064 107.789 23.36 107.469 22.528C107.213 21.696 107.085 20.736 107.085 19.648C107.085 18.176 107.341 16.896 107.853 15.68C108.365 14.528 109.197 13.568 110.285 12.736C111.309 11.968 112.653 11.328 114.253 10.88C115.917 10.432 117.773 10.24 120.013 10.24C121.805 10.24 123.341 10.496 124.813 10.944C126.221 11.392 127.437 12.032 128.397 12.928C129.421 13.76 130.189 14.784 130.701 15.936C131.213 17.088 131.469 18.368 131.469 19.776H122.957C122.893 19.072 122.573 18.432 121.933 17.92C121.357 17.472 120.461 17.216 119.373 17.216C118.093 17.216 117.133 17.408 116.493 17.92C115.853 18.368 115.533 18.944 115.597 19.584C115.597 19.904 115.661 20.224 115.917 20.48C116.109 20.736 116.429 20.928 116.877 21.12C117.325 21.312 117.901 21.44 118.605 21.568C119.309 21.696 120.141 21.824 121.101 21.952C122.637 22.208 124.045 22.528 125.389 22.912C126.797 23.232 127.949 23.744 129.037 24.384C130.061 25.024 130.893 25.856 131.469 26.88C132.109 27.84 132.429 29.184 132.429 30.72C132.429 32.448 132.045 33.92 131.405 35.2C130.701 36.416 129.741 37.504 128.525 38.336C127.309 39.168 125.837 39.744 124.173 40.128C122.445 40.512 120.589 40.768 118.605 40.768C116.365 40.768 114.509 40.448 112.909 39.872C111.373 39.296 110.029 38.528 109.069 37.568C108.045 36.608 107.277 35.52 106.829 34.368C106.317 33.152 106.125 32 106.125 30.784ZM144.514 29.44C144.514 31.104 145.922 32.512 147.65 32.512H150.53V39.808H146.306C145.666 39.808 145.026 39.744 144.45 39.616C139.586 38.72 135.938 34.432 135.938 29.376V2.304H144.514V11.2H150.53V18.432H144.514V29.44ZM176.717 21.824C176.333 21.056 175.885 20.352 175.309 19.776C174.669 19.072 173.837 18.496 172.941 18.176C172.045 17.792 171.085 17.6 170.061 17.6C168.973 17.6 168.013 17.792 167.117 18.176C166.221 18.496 165.453 19.072 164.813 19.776C164.173 20.352 163.725 21.056 163.341 21.824H176.717ZM184.973 30.912C184.909 31.04 184.845 31.232 184.781 31.36C184.013 33.216 182.989 34.816 181.581 36.16L181.517 36.224C180.109 37.632 178.445 38.72 176.461 39.488C174.477 40.256 172.301 40.704 169.933 40.704C167.629 40.704 165.517 40.256 163.533 39.488C161.613 38.656 159.949 37.568 158.541 36.224C157.133 34.88 156.045 33.216 155.277 31.36C154.509 29.568 154.125 27.584 154.125 25.472C154.125 23.36 154.509 21.376 155.277 19.584C156.045 17.728 157.133 16.128 158.541 14.72C159.949 13.312 161.613 12.224 163.533 11.456C165.517 10.624 167.629 10.24 169.997 10.24C172.365 10.24 174.541 10.624 176.461 11.456C178.445 12.224 180.109 13.312 181.517 14.72C182.925 16.128 184.013 17.728 184.781 19.584C185.101 20.288 185.357 21.056 185.549 21.824C185.805 22.976 185.997 24.192 185.997 25.472C185.997 26.368 185.869 27.328 185.741 28.16H177.101H163.021C163.085 28.352 163.149 28.544 163.213 28.736C163.597 29.696 164.109 30.528 164.813 31.232C165.453 31.936 166.285 32.448 167.181 32.832C168.077 33.216 169.037 33.408 170.061 33.408C171.085 33.408 172.109 33.216 173.005 32.832C173.901 32.448 174.669 31.936 175.309 31.232C175.437 31.104 175.501 31.04 175.629 30.912H184.973ZM189.5 25.472C189.5 23.36 189.884 21.376 190.652 19.584C191.42 17.728 192.508 16.128 193.916 14.72C195.324 13.312 196.988 12.224 198.908 11.456C200.892 10.624 203.004 10.24 205.372 10.24C207.74 10.24 209.916 10.624 211.836 11.456C213.5 12.16 214.972 12.992 216.252 14.144L210.684 19.776C210.044 19.072 209.212 18.496 208.316 18.176C207.42 17.792 206.46 17.6 205.436 17.6C204.348 17.6 203.388 17.792 202.492 18.176C201.596 18.496 200.828 19.072 200.188 19.776C199.484 20.416 198.972 21.248 198.588 22.272C198.204 23.232 198.012 24.256 198.012 25.472C198.012 26.624 198.204 27.712 198.588 28.672C198.972 29.632 199.484 30.464 200.188 31.168C200.828 31.872 201.596 32.384 202.492 32.768C203.388 33.152 204.348 33.344 205.436 33.344C206.46 33.344 207.42 33.152 208.316 32.768C209.212 32.384 210.044 31.872 210.684 31.168L216.252 36.8C214.972 37.888 213.5 38.784 211.836 39.488C209.916 40.256 207.74 40.704 205.372 40.704C203.004 40.704 200.892 40.256 198.908 39.488C196.988 38.656 195.324 37.632 193.916 36.224C192.508 34.816 191.42 33.216 190.652 31.36C189.884 29.504 189.5 27.584 189.5 25.472ZM224.485 0C227.045 0 229.157 2.112 229.157 4.672C229.157 7.296 227.045 9.344 224.485 9.344C221.861 9.344 219.812 7.296 219.812 4.672C219.812 2.112 221.861 0 224.485 0ZM228.773 11.2V39.808H220.133V11.2H228.773Z" fill="#1DC38A"/>
<path d="M21.184 31.232C22.272 30.08 22.976 28.544 23.232 26.944C24 22.08 21.056 17.6 15.936 17.6C12.8 17.6 10.24 19.328 9.088 22.272C8.32 24.192 8.32 26.752 9.088 28.736C11.2 34.048 17.856 34.752 21.184 31.232ZM31.872 39.808H23.232V38.272C20.992 39.744 18.432 40.64 15.552 40.704C13.12 40.704 10.944 40.32 8.96 39.488C7.04 38.656 5.44 37.568 4.096 36.224C1.344 33.408 0 29.504 0 25.472C0 19.136 3.584 13.824 9.408 11.456C13.376 9.856 18.432 9.856 22.336 11.456C28.16 13.824 31.872 19.136 31.872 25.472V39.808ZM43.951 23.936C43.183 28.8 46.127 33.344 51.247 33.344C54.383 33.344 56.943 31.552 58.095 28.672C58.863 26.752 58.863 24.128 58.095 22.208C55.983 16.832 49.327 16.192 45.999 19.712C44.911 20.8 44.207 22.336 43.951 23.936ZM67.247 25.472C67.247 31.744 63.599 37.056 57.775 39.488C53.807 41.088 48.751 41.088 44.847 39.488C39.023 37.056 35.375 31.808 35.375 25.472V19.52V11.136V2.304H43.951V11.136V12.608C46.191 11.136 48.751 10.24 51.631 10.24C54.063 10.24 56.239 10.624 58.223 11.456C60.143 12.224 61.743 13.312 63.087 14.72C65.839 17.536 67.247 21.44 67.247 25.472ZM91.934 31.232C93.022 30.08 93.726 28.544 93.982 26.944C94.75 22.08 91.806 17.6 86.686 17.6C83.55 17.6 80.99 19.328 79.838 22.272C79.07 24.192 79.07 26.752 79.838 28.736C81.95 34.048 88.606 34.752 91.934 31.232ZM102.622 39.808H93.982V38.272C91.742 39.744 89.182 40.64 86.302 40.704C83.87 40.704 81.694 40.32 79.71 39.488C77.79 38.656 76.19 37.568 74.846 36.224C72.094 33.408 70.75 29.504 70.75 25.472C70.75 19.136 74.334 13.824 80.158 11.456C84.126 9.856 89.182 9.856 93.086 11.456C98.91 13.824 102.622 19.136 102.622 25.472V39.808ZM106.125 30.784L114.445 30.848C114.573 31.68 115.021 32.384 115.789 32.96C116.621 33.472 117.645 33.728 118.925 33.728C120.525 33.728 121.677 33.536 122.381 33.088C123.149 32.704 123.469 32.064 123.469 31.296C123.469 30.848 123.341 30.464 123.021 30.208C122.637 29.888 122.189 29.632 121.549 29.44C120.909 29.184 120.077 28.992 119.181 28.8C118.221 28.672 117.133 28.416 115.917 28.16C115.341 28.032 114.765 27.904 114.061 27.712C113.421 27.584 112.781 27.392 112.141 27.072C111.437 26.816 110.861 26.496 110.221 26.112C109.645 25.728 109.069 25.216 108.621 24.64C108.173 24.064 107.789 23.36 107.469 22.528C107.213 21.696 107.085 20.736 107.085 19.648C107.085 18.176 107.341 16.896 107.853 15.68C108.365 14.528 109.197 13.568 110.285 12.736C111.309 11.968 112.653 11.328 114.253 10.88C115.917 10.432 117.773 10.24 120.013 10.24C121.805 10.24 123.341 10.496 124.813 10.944C126.221 11.392 127.437 12.032 128.397 12.928C129.421 13.76 130.189 14.784 130.701 15.936C131.213 17.088 131.469 18.368 131.469 19.776H122.957C122.893 19.072 122.573 18.432 121.933 17.92C121.357 17.472 120.461 17.216 119.373 17.216C118.093 17.216 117.133 17.408 116.493 17.92C115.853 18.368 115.533 18.944 115.597 19.584C115.597 19.904 115.661 20.224 115.917 20.48C116.109 20.736 116.429 20.928 116.877 21.12C117.325 21.312 117.901 21.44 118.605 21.568C119.309 21.696 120.141 21.824 121.101 21.952C122.637 22.208 124.045 22.528 125.389 22.912C126.797 23.232 127.949 23.744 129.037 24.384C130.061 25.024 130.893 25.856 131.469 26.88C132.109 27.84 132.429 29.184 132.429 30.72C132.429 32.448 132.045 33.92 131.405 35.2C130.701 36.416 129.741 37.504 128.525 38.336C127.309 39.168 125.837 39.744 124.173 40.128C122.445 40.512 120.589 40.768 118.605 40.768C116.365 40.768 114.509 40.448 112.909 39.872C111.373 39.296 110.029 38.528 109.069 37.568C108.045 36.608 107.277 35.52 106.829 34.368C106.317 33.152 106.125 32 106.125 30.784ZM144.514 29.44C144.514 31.104 145.922 32.512 147.65 32.512H150.53V39.808H146.306C145.666 39.808 145.026 39.744 144.45 39.616C139.586 38.72 135.938 34.432 135.938 29.376V2.304H144.514V11.2H150.53V18.432H144.514V29.44ZM176.717 21.824C176.333 21.056 175.885 20.352 175.309 19.776C174.669 19.072 173.837 18.496 172.941 18.176C172.045 17.792 171.085 17.6 170.061 17.6C168.973 17.6 168.013 17.792 167.117 18.176C166.221 18.496 165.453 19.072 164.813 19.776C164.173 20.352 163.725 21.056 163.341 21.824H176.717ZM184.973 30.912C184.909 31.04 184.845 31.232 184.781 31.36C184.013 33.216 182.989 34.816 181.581 36.16L181.517 36.224C180.109 37.632 178.445 38.72 176.461 39.488C174.477 40.256 172.301 40.704 169.933 40.704C167.629 40.704 165.517 40.256 163.533 39.488C161.613 38.656 159.949 37.568 158.541 36.224C157.133 34.88 156.045 33.216 155.277 31.36C154.509 29.568 154.125 27.584 154.125 25.472C154.125 23.36 154.509 21.376 155.277 19.584C156.045 17.728 157.133 16.128 158.541 14.72C159.949 13.312 161.613 12.224 163.533 11.456C165.517 10.624 167.629 10.24 169.997 10.24C172.365 10.24 174.541 10.624 176.461 11.456C178.445 12.224 180.109 13.312 181.517 14.72C182.925 16.128 184.013 17.728 184.781 19.584C185.101 20.288 185.357 21.056 185.549 21.824C185.805 22.976 185.997 24.192 185.997 25.472C185.997 26.368 185.869 27.328 185.741 28.16H177.101H163.021C163.085 28.352 163.149 28.544 163.213 28.736C163.597 29.696 164.109 30.528 164.813 31.232C165.453 31.936 166.285 32.448 167.181 32.832C168.077 33.216 169.037 33.408 170.061 33.408C171.085 33.408 172.109 33.216 173.005 32.832C173.901 32.448 174.669 31.936 175.309 31.232C175.437 31.104 175.501 31.04 175.629 30.912H184.973ZM189.5 25.472C189.5 23.36 189.884 21.376 190.652 19.584C191.42 17.728 192.508 16.128 193.916 14.72C195.324 13.312 196.988 12.224 198.908 11.456C200.892 10.624 203.004 10.24 205.372 10.24C207.74 10.24 209.916 10.624 211.836 11.456C213.5 12.16 214.972 12.992 216.252 14.144L210.684 19.776C210.044 19.072 209.212 18.496 208.316 18.176C207.42 17.792 206.46 17.6 205.436 17.6C204.348 17.6 203.388 17.792 202.492 18.176C201.596 18.496 200.828 19.072 200.188 19.776C199.484 20.416 198.972 21.248 198.588 22.272C198.204 23.232 198.012 24.256 198.012 25.472C198.012 26.624 198.204 27.712 198.588 28.672C198.972 29.632 199.484 30.464 200.188 31.168C200.828 31.872 201.596 32.384 202.492 32.768C203.388 33.152 204.348 33.344 205.436 33.344C206.46 33.344 207.42 33.152 208.316 32.768C209.212 32.384 210.044 31.872 210.684 31.168L216.252 36.8C214.972 37.888 213.5 38.784 211.836 39.488C209.916 40.256 207.74 40.704 205.372 40.704C203.004 40.704 200.892 40.256 198.908 39.488C196.988 38.656 195.324 37.632 193.916 36.224C192.508 34.816 191.42 33.216 190.652 31.36C189.884 29.504 189.5 27.584 189.5 25.472ZM224.485 0C227.045 0 229.157 2.112 229.157 4.672C229.157 7.296 227.045 9.344 224.485 9.344C221.861 9.344 219.812 7.296 219.812 4.672C219.812 2.112 221.861 0 224.485 0ZM228.773 11.2V39.808H220.133V11.2H228.773Z" fill="#1DC38A"/>
</svg>
