<svg width="240" height="37" viewBox="0 0 240 37" fill="none" xmlns="http://www.w3.org/2000/svg">
<path d="M227.612 2.74157L226.517 1.79775L225.421 2.74157C224.831 3.17978 213.034 13.4607 213.034 22.5618C213.034 26.1377 214.454 29.5672 216.983 32.0958C219.511 34.6244 222.941 36.0449 226.517 36.0449C230.093 36.0449 233.522 34.6244 236.051 32.0958C238.579 29.5672 240 26.1377 240 22.5618C240 13.4607 228.202 3.17978 227.612 2.74157ZM230.275 30.0955L228.775 27.0787C229.615 26.6595 230.321 26.015 230.815 25.2173C231.309 24.4196 231.572 23.5001 231.573 22.5618H234.944C234.942 24.1272 234.505 25.6613 233.68 26.992C232.855 28.3226 231.676 29.3973 230.275 30.0955Z" fill="#046099"/>
<path d="M19.0418 28.0737C20.0198 27.0382 20.6526 25.6575 20.8827 24.2193C21.573 19.8472 18.9267 15.8202 14.3245 15.8202C11.5056 15.8202 9.2045 17.3735 8.16899 20.0198C7.47865 21.7456 7.47865 24.0467 8.16899 25.8301C10.0674 30.6049 16.0503 31.2378 19.0418 28.0737ZM28.649 35.7825H20.8827V34.4018C18.8692 35.7249 16.5681 36.5303 13.9793 36.5879C11.7933 36.5879 9.8373 36.2427 8.05393 35.4948C6.32809 34.747 4.88989 33.769 3.6818 32.5609C1.20809 30.0297 0 26.5204 0 22.8962C0 17.2009 3.22157 12.4261 8.45663 10.2975C12.0234 8.85932 16.5681 8.85932 20.0773 10.2975C25.3124 12.4261 28.649 17.2009 28.649 22.8962V35.7825Z" fill="#1DC38A"/>
<path d="M39.5065 21.5155C38.8162 25.8876 41.4625 29.9721 46.0647 29.9721C48.8836 29.9721 51.1847 28.3613 52.2202 25.7726C52.9106 24.0467 52.9106 21.6881 52.2202 19.9622C50.3218 15.1299 44.3389 14.5546 41.3474 17.7187C40.3694 18.6966 39.7366 20.0773 39.5065 21.5155ZM60.4467 22.8962C60.4467 28.5339 57.1676 33.3088 51.9326 35.4948C48.3658 36.933 43.8211 36.933 40.3119 35.4948C35.0769 33.3088 31.7978 28.5915 31.7978 22.8962V2.07101H39.5065V11.333C41.52 10.0099 43.8211 9.20449 46.4099 9.20449C48.596 9.20449 50.5519 9.54966 52.3353 10.2975C54.0611 10.9879 55.4993 11.9658 56.7074 13.2315C59.1811 15.7627 60.4467 19.2719 60.4467 22.8962Z" fill="#1DC38A"/>
<path d="M82.6373 28.0737C83.6153 27.0382 84.2481 25.6575 84.4782 24.2193C85.1685 19.8472 82.5223 15.8202 77.92 15.8202C75.1011 15.8202 72.8 17.3735 71.7645 20.0198C71.0742 21.7456 71.0742 24.0467 71.7645 25.8301C73.6629 30.6049 79.6458 31.2378 82.6373 28.0737ZM92.2445 35.7825H84.4782V34.4018C82.4647 35.7249 80.1636 36.5303 77.5748 36.5879C75.3888 36.5879 73.4328 36.2427 71.6494 35.4948C69.9236 34.747 68.4854 33.769 67.2773 32.5609C64.8036 30.0297 63.5955 26.5204 63.5955 22.8962C63.5955 17.2009 66.8171 12.4261 72.0521 10.2975C75.6189 8.85932 80.1636 8.85932 83.6728 10.2975C88.9079 12.4261 92.2445 17.2009 92.2445 22.8962V35.7825Z" fill="#1DC38A"/>
<path d="M95.3933 27.671L102.872 27.7285C102.987 28.4764 103.39 29.1092 104.08 29.627C104.828 30.0872 105.748 30.3173 106.899 30.3173C108.337 30.3173 109.373 30.1447 110.005 29.742C110.696 29.3969 110.983 28.8216 110.983 28.1312C110.983 27.7285 110.868 27.3834 110.581 27.1533C110.236 26.8656 109.833 26.6355 109.258 26.4629C108.682 26.2328 107.934 26.0602 107.129 25.8876C106.266 25.7726 105.288 25.5425 104.195 25.3124C103.677 25.1973 103.16 25.0822 102.527 24.9097C101.951 24.7946 101.376 24.622 100.801 24.3344C100.168 24.1043 99.6503 23.8166 99.0751 23.4715C98.5573 23.1263 98.0396 22.6661 97.6369 22.1483C97.2342 21.6306 96.889 20.9978 96.6014 20.2499C96.3712 19.502 96.2562 18.6391 96.2562 17.6611C96.2562 16.338 96.4863 15.1874 96.9465 14.0944C97.4067 13.0589 98.1546 12.196 99.1326 11.4481C100.053 10.7578 101.261 10.1825 102.699 9.77977C104.195 9.37708 105.863 9.20449 107.877 9.20449C109.488 9.20449 110.868 9.4346 112.191 9.8373C113.457 10.24 114.55 10.8153 115.413 11.6207C116.333 12.3685 117.024 13.289 117.484 14.3245C117.944 15.36 118.174 16.5106 118.174 17.7762H110.523C110.466 17.1434 110.178 16.5681 109.603 16.1079C109.085 15.7052 108.28 15.4751 107.302 15.4751C106.151 15.4751 105.288 15.6476 104.713 16.1079C104.138 16.5106 103.85 17.0283 103.907 17.6036C103.907 17.8912 103.965 18.1789 104.195 18.409C104.368 18.6391 104.655 18.8117 105.058 18.9843C105.461 19.1569 105.978 19.2719 106.611 19.387C107.244 19.502 107.992 19.6171 108.855 19.7321C110.236 19.9622 111.501 20.2499 112.709 20.5951C113.975 20.8827 115.01 21.3429 115.988 21.9182C116.909 22.4935 117.657 23.2413 118.174 24.1618C118.75 25.0247 119.037 26.2328 119.037 27.6135C119.037 29.1667 118.692 30.4899 118.117 31.6404C117.484 32.7335 116.621 33.7115 115.528 34.4593C114.435 35.2072 113.112 35.7249 111.616 36.0701C110.063 36.4153 108.395 36.6454 106.611 36.6454C104.598 36.6454 102.929 36.3578 101.491 35.84C100.111 35.3222 98.9025 34.6319 98.0396 33.769C97.1191 32.9061 96.4288 31.9281 96.0261 30.8926C95.5658 29.7995 95.3933 28.764 95.3933 27.671Z" fill="#1DC38A"/>
<path d="M129.9 26.4629C129.9 27.9586 131.165 29.2243 132.719 29.2243H135.307V35.7825H131.511C130.935 35.7825 130.36 35.7249 129.842 35.6099C125.47 34.8045 122.191 30.9501 122.191 26.4054V2.07101H129.9V10.0674H135.307V16.5681H129.9V26.4629Z" fill="#1DC38A"/>
<path d="M158.847 19.6171C158.502 18.9267 158.099 18.2939 157.581 17.7762C157.006 17.1434 156.258 16.6256 155.453 16.338C154.647 15.9928 153.784 15.8202 152.864 15.8202C151.886 15.8202 151.023 15.9928 150.218 16.338C149.412 16.6256 148.722 17.1434 148.147 17.7762C147.571 18.2939 147.169 18.9267 146.823 19.6171H158.847ZM166.268 27.7861C166.21 27.9011 166.153 28.0737 166.095 28.1888C165.405 29.8571 164.484 31.2953 163.219 32.5034L163.161 32.5609C161.896 33.8265 160.4 34.8045 158.617 35.4948C156.833 36.1852 154.877 36.5879 152.749 36.5879C150.678 36.5879 148.779 36.1852 146.996 35.4948C145.27 34.747 143.774 33.769 142.509 32.5609C141.243 31.3528 140.265 29.8571 139.575 28.1888C138.884 26.578 138.539 24.7946 138.539 22.8962C138.539 20.9978 138.884 19.2144 139.575 17.6036C140.265 15.9353 141.243 14.4971 142.509 13.2315C143.774 11.9658 145.27 10.9879 146.996 10.2975C148.779 9.54966 150.678 9.20449 152.806 9.20449C154.935 9.20449 156.891 9.54966 158.617 10.2975C160.4 10.9879 161.896 11.9658 163.161 13.2315C164.427 14.4971 165.405 15.9353 166.095 17.6036C166.383 18.2364 166.613 18.9267 166.786 19.6171C167.016 20.6526 167.188 21.7456 167.188 22.8962C167.188 23.7016 167.073 24.5645 166.958 25.3124H146.536C146.593 25.4849 146.651 25.6575 146.708 25.8301C147.053 26.693 147.514 27.4409 148.147 28.0737C148.722 28.7065 149.47 29.1667 150.275 29.5119C151.08 29.8571 151.943 30.0297 152.864 30.0297C153.784 30.0297 154.705 29.8571 155.51 29.5119C156.316 29.1667 157.006 28.7065 157.581 28.0737C157.696 27.9586 157.754 27.9011 157.869 27.7861H166.268Z" fill="#1DC38A"/>
<path d="M170.337 22.8962C170.337 20.9978 170.682 19.2144 171.373 17.6036C172.063 15.9353 173.041 14.4971 174.307 13.2315C175.572 11.9658 177.068 10.9879 178.794 10.2975C180.577 9.54966 182.476 9.20449 184.604 9.20449C186.733 9.20449 188.689 9.54966 190.414 10.2975C191.91 10.9303 193.233 11.6782 194.384 12.7137L189.379 17.7762C188.804 17.1434 188.056 16.6256 187.25 16.338C186.445 15.9928 185.582 15.8202 184.662 15.8202C183.684 15.8202 182.821 15.9928 182.015 16.338C181.21 16.6256 180.52 17.1434 179.944 17.7762C179.311 18.3515 178.851 19.0993 178.506 20.0198C178.161 20.8827 177.988 21.8031 177.988 22.8962C177.988 23.9317 178.161 24.9097 178.506 25.7726C178.851 26.6355 179.311 27.3834 179.944 28.0162C180.52 28.649 181.21 29.1092 182.015 29.4544C182.821 29.7995 183.684 29.9721 184.662 29.9721C185.582 29.9721 186.445 29.7995 187.25 29.4544C188.056 29.1092 188.804 28.649 189.379 28.0162L194.384 33.0786C193.233 34.0566 191.91 34.862 190.414 35.4948C188.689 36.1852 186.733 36.5879 184.604 36.5879C182.476 36.5879 180.577 36.1852 178.794 35.4948C177.068 34.747 175.572 33.8265 174.307 32.5609C173.041 31.2953 172.063 29.8571 171.373 28.1888C170.682 26.5204 170.337 24.7946 170.337 22.8962Z" fill="#1DC38A"/>
<path d="M201.784 0C204.085 0 205.983 1.89843 205.983 4.19955C205.983 6.5582 204.085 8.3991 201.784 8.3991C199.425 8.3991 197.584 6.5582 197.584 4.19955C197.584 1.89843 199.425 0 201.784 0ZM205.638 10.0674V35.7825H197.872V10.0674H205.638Z" fill="#1DC38A"/>
<path d="M19.0418 28.0737C20.0198 27.0382 20.6526 25.6575 20.8827 24.2193C21.573 19.8472 18.9267 15.8202 14.3245 15.8202C11.5056 15.8202 9.2045 17.3735 8.16899 20.0198C7.47865 21.7456 7.47865 24.0467 8.16899 25.8301C10.0674 30.6049 16.0503 31.2378 19.0418 28.0737ZM28.649 35.7825H20.8827V34.4018C18.8692 35.7249 16.5681 36.5303 13.9793 36.5879C11.7933 36.5879 9.8373 36.2427 8.05393 35.4948C6.32809 34.747 4.88989 33.769 3.6818 32.5609C1.20809 30.0297 0 26.5204 0 22.8962C0 17.2009 3.22157 12.4261 8.45663 10.2975C12.0234 8.85932 16.5681 8.85932 20.0773 10.2975C25.3124 12.4261 28.649 17.2009 28.649 22.8962V35.7825Z" fill="#1DC38A"/>
<path d="M39.5065 21.5155C38.8162 25.8876 41.4625 29.9721 46.0647 29.9721C48.8836 29.9721 51.1847 28.3613 52.2202 25.7726C52.9106 24.0467 52.9106 21.6881 52.2202 19.9622C50.3218 15.1299 44.3389 14.5546 41.3474 17.7187C40.3694 18.6966 39.7366 20.0773 39.5065 21.5155ZM60.4467 22.8962C60.4467 28.5339 57.1676 33.3088 51.9326 35.4948C48.3658 36.933 43.8211 36.933 40.3119 35.4948C35.0769 33.3088 31.7978 28.5915 31.7978 22.8962V2.07101H39.5065V11.333C41.52 10.0099 43.8211 9.20449 46.4099 9.20449C48.596 9.20449 50.5519 9.54966 52.3353 10.2975C54.0611 10.9879 55.4993 11.9658 56.7074 13.2315C59.1811 15.7627 60.4467 19.2719 60.4467 22.8962Z" fill="#1DC38A"/>
<path d="M82.6373 28.0737C83.6153 27.0382 84.2481 25.6575 84.4782 24.2193C85.1685 19.8472 82.5223 15.8202 77.92 15.8202C75.1011 15.8202 72.8 17.3735 71.7645 20.0198C71.0742 21.7456 71.0742 24.0467 71.7645 25.8301C73.6629 30.6049 79.6458 31.2378 82.6373 28.0737ZM92.2445 35.7825H84.4782V34.4018C82.4647 35.7249 80.1636 36.5303 77.5748 36.5879C75.3888 36.5879 73.4328 36.2427 71.6494 35.4948C69.9236 34.747 68.4854 33.769 67.2773 32.5609C64.8036 30.0297 63.5955 26.5204 63.5955 22.8962C63.5955 17.2009 66.8171 12.4261 72.0521 10.2975C75.6189 8.85932 80.1636 8.85932 83.6728 10.2975C88.9079 12.4261 92.2445 17.2009 92.2445 22.8962V35.7825Z" fill="#1DC38A"/>
<path d="M95.3933 27.671L102.872 27.7285C102.987 28.4764 103.39 29.1092 104.08 29.627C104.828 30.0872 105.748 30.3173 106.899 30.3173C108.337 30.3173 109.373 30.1447 110.005 29.742C110.696 29.3969 110.983 28.8216 110.983 28.1312C110.983 27.7285 110.868 27.3834 110.581 27.1533C110.236 26.8656 109.833 26.6355 109.258 26.4629C108.682 26.2328 107.934 26.0602 107.129 25.8876C106.266 25.7726 105.288 25.5425 104.195 25.3124C103.677 25.1973 103.16 25.0822 102.527 24.9097C101.951 24.7946 101.376 24.622 100.801 24.3344C100.168 24.1043 99.6503 23.8166 99.0751 23.4715C98.5573 23.1263 98.0396 22.6661 97.6369 22.1483C97.2342 21.6306 96.889 20.9978 96.6014 20.2499C96.3712 19.502 96.2562 18.6391 96.2562 17.6611C96.2562 16.338 96.4863 15.1874 96.9465 14.0944C97.4067 13.0589 98.1546 12.196 99.1326 11.4481C100.053 10.7578 101.261 10.1825 102.699 9.77977C104.195 9.37708 105.863 9.20449 107.877 9.20449C109.488 9.20449 110.868 9.4346 112.191 9.8373C113.457 10.24 114.55 10.8153 115.413 11.6207C116.333 12.3685 117.024 13.289 117.484 14.3245C117.944 15.36 118.174 16.5106 118.174 17.7762H110.523C110.466 17.1434 110.178 16.5681 109.603 16.1079C109.085 15.7052 108.28 15.4751 107.302 15.4751C106.151 15.4751 105.288 15.6476 104.713 16.1079C104.138 16.5106 103.85 17.0283 103.907 17.6036C103.907 17.8912 103.965 18.1789 104.195 18.409C104.368 18.6391 104.655 18.8117 105.058 18.9843C105.461 19.1569 105.978 19.2719 106.611 19.387C107.244 19.502 107.992 19.6171 108.855 19.7321C110.236 19.9622 111.501 20.2499 112.709 20.5951C113.975 20.8827 115.01 21.3429 115.988 21.9182C116.909 22.4935 117.657 23.2413 118.174 24.1618C118.75 25.0247 119.037 26.2328 119.037 27.6135C119.037 29.1667 118.692 30.4899 118.117 31.6404C117.484 32.7335 116.621 33.7115 115.528 34.4593C114.435 35.2072 113.112 35.7249 111.616 36.0701C110.063 36.4153 108.395 36.6454 106.611 36.6454C104.598 36.6454 102.929 36.3578 101.491 35.84C100.111 35.3222 98.9025 34.6319 98.0396 33.769C97.1191 32.9061 96.4288 31.9281 96.0261 30.8926C95.5658 29.7995 95.3933 28.764 95.3933 27.671Z" fill="#1DC38A"/>
<path d="M129.9 26.4629C129.9 27.9586 131.165 29.2243 132.719 29.2243H135.307V35.7825H131.511C130.935 35.7825 130.36 35.7249 129.842 35.6099C125.47 34.8045 122.191 30.9501 122.191 26.4054V2.07101H129.9V10.0674H135.307V16.5681H129.9V26.4629Z" fill="#1DC38A"/>
<path d="M158.847 19.6171C158.502 18.9267 158.099 18.2939 157.581 17.7762C157.006 17.1434 156.258 16.6256 155.453 16.338C154.647 15.9928 153.784 15.8202 152.864 15.8202C151.886 15.8202 151.023 15.9928 150.218 16.338C149.412 16.6256 148.722 17.1434 148.147 17.7762C147.571 18.2939 147.169 18.9267 146.823 19.6171H158.847ZM166.268 27.7861C166.21 27.9011 166.153 28.0737 166.095 28.1888C165.405 29.8571 164.484 31.2953 163.219 32.5034L163.161 32.5609C161.896 33.8265 160.4 34.8045 158.617 35.4948C156.833 36.1852 154.877 36.5879 152.749 36.5879C150.678 36.5879 148.779 36.1852 146.996 35.4948C145.27 34.747 143.774 33.769 142.509 32.5609C141.243 31.3528 140.265 29.8571 139.575 28.1888C138.884 26.578 138.539 24.7946 138.539 22.8962C138.539 20.9978 138.884 19.2144 139.575 17.6036C140.265 15.9353 141.243 14.4971 142.509 13.2315C143.774 11.9658 145.27 10.9879 146.996 10.2975C148.779 9.54966 150.678 9.20449 152.806 9.20449C154.935 9.20449 156.891 9.54966 158.617 10.2975C160.4 10.9879 161.896 11.9658 163.161 13.2315C164.427 14.4971 165.405 15.9353 166.095 17.6036C166.383 18.2364 166.613 18.9267 166.786 19.6171C167.016 20.6526 167.188 21.7456 167.188 22.8962C167.188 23.7016 167.073 24.5645 166.958 25.3124H146.536C146.593 25.4849 146.651 25.6575 146.708 25.8301C147.053 26.693 147.514 27.4409 148.147 28.0737C148.722 28.7065 149.47 29.1667 150.275 29.5119C151.08 29.8571 151.943 30.0297 152.864 30.0297C153.784 30.0297 154.705 29.8571 155.51 29.5119C156.316 29.1667 157.006 28.7065 157.581 28.0737C157.696 27.9586 157.754 27.9011 157.869 27.7861H166.268Z" fill="#1DC38A"/>
<path d="M170.337 22.8962C170.337 20.9978 170.682 19.2144 171.373 17.6036C172.063 15.9353 173.041 14.4971 174.307 13.2315C175.572 11.9658 177.068 10.9879 178.794 10.2975C180.577 9.54966 182.476 9.20449 184.604 9.20449C186.733 9.20449 188.689 9.54966 190.414 10.2975C191.91 10.9303 193.233 11.6782 194.384 12.7137L189.379 17.7762C188.804 17.1434 188.056 16.6256 187.25 16.338C186.445 15.9928 185.582 15.8202 184.662 15.8202C183.684 15.8202 182.821 15.9928 182.015 16.338C181.21 16.6256 180.52 17.1434 179.944 17.7762C179.311 18.3515 178.851 19.0993 178.506 20.0198C178.161 20.8827 177.988 21.8031 177.988 22.8962C177.988 23.9317 178.161 24.9097 178.506 25.7726C178.851 26.6355 179.311 27.3834 179.944 28.0162C180.52 28.649 181.21 29.1092 182.015 29.4544C182.821 29.7995 183.684 29.9721 184.662 29.9721C185.582 29.9721 186.445 29.7995 187.25 29.4544C188.056 29.1092 188.804 28.649 189.379 28.0162L194.384 33.0786C193.233 34.0566 191.91 34.862 190.414 35.4948C188.689 36.1852 186.733 36.5879 184.604 36.5879C182.476 36.5879 180.577 36.1852 178.794 35.4948C177.068 34.747 175.572 33.8265 174.307 32.5609C173.041 31.2953 172.063 29.8571 171.373 28.1888C170.682 26.5204 170.337 24.7946 170.337 22.8962Z" fill="#1DC38A"/>
<path d="M201.784 0C204.085 0 205.983 1.89843 205.983 4.19955C205.983 6.5582 204.085 8.3991 201.784 8.3991C199.425 8.3991 197.584 6.5582 197.584 4.19955C197.584 1.89843 199.425 0 201.784 0ZM205.638 10.0674V35.7825H197.872V10.0674H205.638Z" fill="#1DC38A"/>
</svg>
